<svg width="42" height="29" viewBox="0 0 42 29" fill="none" xmlns="http://www.w3.org/2000/svg">
<path fill-rule="evenodd" clip-rule="evenodd" d="M17.3738 13.4525C18.4543 12.9725 19.3832 12.2062 20.0598 11.2365C20.6962 10.1824 21.0098 8.96487 20.9618 7.73447C21.0037 6.60966 20.796 5.48953 20.3538 4.45446C19.9916 3.57318 19.3971 2.80663 18.6338 2.23645C17.8338 1.65644 16.9238 1.26244 15.9678 1.08444C14.8386 0.833613 13.6843 0.714153 12.5277 0.72844H0.599682C0.440552 0.72844 0.287939 0.791654 0.175416 0.904176C0.062894 1.0167 -0.000320435 1.16931 -0.000320435 1.32844V28.0106C-0.000320435 28.1697 0.062894 28.3223 0.175416 28.4348C0.287939 28.5473 0.440552 28.6106 0.599682 28.6106H12.7997C13.9677 28.6106 15.1317 28.4546 16.2598 28.1446C17.3388 27.8487 18.3557 27.3609 19.2618 26.7046C20.1566 26.0456 20.8774 25.1786 21.3618 24.1785C21.909 23.0387 22.1751 21.7844 22.1378 20.5205C22.1793 18.958 21.7629 17.4174 20.9398 16.0885C20.085 14.7841 18.7765 13.8433 17.2678 13.4485H17.3738V13.4525ZM6.09971 5.22846C5.99362 5.22846 5.89188 5.2706 5.81686 5.34562C5.74185 5.42063 5.6997 5.52237 5.6997 5.62846V11.8285C5.6997 12.0485 5.87971 12.2285 6.09971 12.2285H11.6997C12.628 12.2285 13.5182 11.8597 14.1746 11.2034C14.831 10.547 15.1997 9.65674 15.1997 8.72847C15.1997 7.80021 14.831 6.90997 14.1746 6.25359C13.5182 5.59721 12.628 5.22846 11.6997 5.22846H6.09971ZM5.6997 16.1285C5.6997 15.9085 5.87971 15.7285 6.09971 15.7285H11.9497C13.0769 15.7285 14.1579 16.1763 14.9549 16.9733C15.752 17.7703 16.1998 18.8513 16.1998 19.9785C16.1998 21.1057 15.752 22.1867 14.9549 22.9837C14.1579 23.7808 13.0769 24.2285 11.9497 24.2285H6.09971C5.99362 24.2285 5.89188 24.1864 5.81686 24.1114C5.74185 24.0364 5.6997 23.9346 5.6997 23.8285V16.1285Z" fill="#64CCC5"/>
<path d="M27.8777 2.14832H37.3238C37.4815 2.1483 37.6329 2.21042 37.7452 2.32121C37.8575 2.43201 37.9217 2.58258 37.9238 2.74032L37.9498 4.66433C37.9508 4.74379 37.9361 4.82267 37.9064 4.89639C37.8767 4.97012 37.8327 5.03721 37.7769 5.09377C37.7211 5.15034 37.6546 5.19525 37.5813 5.2259C37.5079 5.25656 37.4292 5.27234 37.3498 5.27233H27.8777C27.7186 5.27233 27.566 5.20911 27.4535 5.09659C27.3409 4.98407 27.2777 4.83146 27.2777 4.67233V2.74832C27.2777 2.58919 27.3409 2.43657 27.4535 2.32405C27.566 2.21153 27.7186 2.14832 27.8777 2.14832Z" fill="#64CCC5"/>
<path fill-rule="evenodd" clip-rule="evenodd" d="M32.9438 24.4685C33.9173 24.4974 34.8738 24.2097 35.6698 23.6485C36.1898 23.3025 36.6038 22.8085 36.8658 22.2245C36.8986 22.1484 36.9526 22.0834 37.0214 22.0373C37.0903 21.9911 37.171 21.9659 37.2538 21.9645H41.0958C41.3558 21.9645 41.5478 22.2085 41.4698 22.4565C40.9006 24.3348 39.7526 25.9853 38.1898 27.1726C36.5449 28.2432 34.6115 28.7841 32.6498 28.7226C31.2558 28.7475 29.8709 28.4918 28.5778 27.9706C27.4017 27.4738 26.3544 26.7152 25.5158 25.7526C24.6861 24.7529 24.0584 23.6015 23.6678 22.3625C23.2018 20.9777 22.9752 19.5235 22.9978 18.0625C22.9841 16.622 23.2182 15.1898 23.6898 13.8285C24.1221 12.584 24.7994 11.4388 25.6818 10.4605C26.5498 9.52001 27.5997 8.76545 28.7678 8.24248C30.0241 7.69228 31.3823 7.41288 32.7538 7.42248C34.2146 7.40078 35.6577 7.74453 36.9518 8.42248C38.136 9.07763 39.1552 9.9942 39.9318 11.1025C40.7138 12.2585 41.2838 13.5585 41.6098 14.9365C41.9465 16.3889 42.0664 17.8831 41.9658 19.3705H28.0758C28.0095 20.7869 28.4729 22.1772 29.3758 23.2705C29.8598 23.7185 30.4278 24.0565 31.0418 24.2625C31.6558 24.4685 32.3038 24.5386 32.9438 24.4685ZM28.1998 15.5265C28.1995 15.5531 28.2045 15.5795 28.2146 15.6041C28.2247 15.6288 28.2395 15.6511 28.2583 15.6699C28.2772 15.6888 28.2995 15.7036 28.3242 15.7137C28.3488 15.7237 28.3752 15.7288 28.4018 15.7285H36.4978C36.5514 15.7285 36.6028 15.7072 36.6406 15.6693C36.6785 15.6315 36.6998 15.5801 36.6998 15.5265C36.6998 14.4529 36.2733 13.4233 35.5142 12.6641C34.755 11.905 33.7254 11.4785 32.6518 11.4785H32.2478C31.1742 11.4785 30.1446 11.905 29.3854 12.6641C28.6263 13.4233 28.1998 14.4529 28.1998 15.5265Z" fill="#64CCC5"/>
</svg>
