<svg width="28" height="29" viewBox="0 0 28 29" fill="none" xmlns="http://www.w3.org/2000/svg">
<path d="M0 2.7328C0 1.62504 0.9205 0.727295 2.05625 0.727295H25.9438C27.0795 0.727295 28 1.62504 28 2.7328V26.7218C28 27.8295 27.0795 28.7273 25.9438 28.7273H2.05625C0.9205 28.7273 0 27.8295 0 26.7218V2.7328ZM8.65025 24.1668V11.523H4.4485V24.1668H8.65025ZM6.55025 9.7958C8.015 9.7958 8.92675 8.82629 8.92675 7.61179C8.9005 6.37105 8.01675 5.42779 6.57825 5.42779C5.13975 5.42779 4.2 6.3728 4.2 7.61179C4.2 8.82629 5.11175 9.7958 6.52225 9.7958H6.55025ZM15.1392 24.1668V17.1055C15.1392 16.7275 15.1672 16.3495 15.2793 16.08C15.582 15.3258 16.2733 14.5435 17.4353 14.5435C18.956 14.5435 19.5632 15.702 19.5632 17.403V24.1668H23.765V16.9148C23.765 13.0298 21.693 11.2238 18.928 11.2238C16.6985 11.2238 15.6993 12.4488 15.1392 13.3115V13.3553H15.1112C15.1205 13.3407 15.1299 13.3261 15.1392 13.3115V11.523H10.9392C10.9917 12.7095 10.9392 24.1668 10.9392 24.1668H15.1392Z" fill="#64CCC5"/>
</svg>
