<svg width="31" height="39" viewBox="0 0 31 39" fill="none" xmlns="http://www.w3.org/2000/svg">
<path d="M15.5 0.136414C11.5232 0.141105 7.71062 1.72296 4.89859 4.53499C2.08656 7.34702 0.504708 11.1596 0.500016 15.1364C0.495253 18.3862 1.55681 21.5479 3.52183 24.1364C3.52183 24.1364 3.93092 24.675 3.99774 24.7528L15.5 38.3182L27.0077 24.7459C27.0677 24.6737 27.4782 24.1364 27.4782 24.1364L27.4795 24.1323C29.4436 21.545 30.5046 18.3848 30.5 15.1364C30.4953 11.1596 28.9134 7.34702 26.1014 4.53499C23.2894 1.72296 19.4768 0.141105 15.5 0.136414ZM15.5 20.5909C14.4212 20.5909 13.3666 20.271 12.4696 19.6717C11.5726 19.0723 10.8735 18.2204 10.4607 17.2238C10.0478 16.2271 9.9398 15.1303 10.1503 14.0723C10.3607 13.0142 10.8802 12.0423 11.6431 11.2795C12.4059 10.5166 13.3778 9.99713 14.4359 9.78666C15.4939 9.5762 16.5907 9.68422 17.5874 10.0971C18.584 10.5099 19.4359 11.209 20.0353 12.106C20.6346 13.003 20.9545 14.0576 20.9545 15.1364C20.9527 16.5825 20.3775 17.9688 19.3549 18.9913C18.3324 20.0139 16.9461 20.5891 15.5 20.5909Z" fill="#64CCC5"/>
</svg>
