<svg width="34" height="27" viewBox="0 0 34 27" fill="none" xmlns="http://www.w3.org/2000/svg">
<path d="M1.86363 5.16665C1.86363 4.28259 2.21482 3.43474 2.83994 2.80962C3.46506 2.1845 4.31291 1.83331 5.19697 1.83331H28.5303C29.4144 1.83331 30.2622 2.1845 30.8873 2.80962C31.5124 3.43474 31.8636 4.28259 31.8636 5.16665V21.8333C31.8636 22.7174 31.5124 23.5652 30.8873 24.1903C30.2622 24.8155 29.4144 25.1666 28.5303 25.1666H5.19697C4.31291 25.1666 3.46506 24.8155 2.83994 24.1903C2.21482 23.5652 1.86363 22.7174 1.86363 21.8333V5.16665Z" stroke="#64CCC5" stroke-width="3.39394" stroke-linecap="round" stroke-linejoin="round"/>
<path d="M1.86363 5.16656L16.8636 15.1666L31.8636 5.16656" stroke="#64CCC5" stroke-width="3.39394" stroke-linecap="round" stroke-linejoin="round"/>
</svg>
