<svg width="31" height="31" viewBox="0 0 31 31" fill="none" xmlns="http://www.w3.org/2000/svg">
<path d="M30.4825 22.8892C30.2151 24.9218 29.2169 26.7875 27.6743 28.1379C26.1318 29.4883 24.1505 30.231 22.1004 30.2273C10.1902 30.2273 0.500014 20.5372 0.500014 8.62695C0.496339 6.57685 1.23906 4.59552 2.58945 3.053C3.93984 1.51048 5.80556 0.512273 7.83814 0.244809C8.35213 0.182049 8.87263 0.287202 9.32195 0.544571C9.77126 0.801941 10.1253 1.19772 10.3312 1.67283L13.4992 8.74546V8.76346C13.6569 9.12714 13.722 9.52421 13.6887 9.91919C13.6555 10.3142 13.5249 10.6948 13.3087 11.027C13.2817 11.0675 13.2532 11.105 13.2232 11.1425L10.1002 14.8446C11.2237 17.1276 13.6117 19.4946 15.9248 20.6212L19.5758 17.5146C19.6117 17.4845 19.6493 17.4564 19.6883 17.4306C20.0203 17.2092 20.4022 17.0741 20.7995 17.0374C21.1968 17.0007 21.597 17.0637 21.9639 17.2206L21.9834 17.2296L29.05 20.3962C29.526 20.6013 29.9227 20.955 30.1809 21.4044C30.4391 21.8538 30.5449 22.3747 30.4825 22.8892Z" fill="#64CCC5"/>
</svg>
