<svg width="28" height="29" viewBox="0 0 28 29" fill="none" xmlns="http://www.w3.org/2000/svg">
<path d="M15.4392 0.729262C16.4608 0.725341 17.4824 0.735609 18.5037 0.76006L18.7752 0.76986C19.0888 0.781059 19.3982 0.795058 19.772 0.811857C21.2615 0.881854 22.2779 1.11704 23.1696 1.46282C24.0936 1.81841 24.8719 2.29998 25.6503 3.07834C26.362 3.77775 26.9128 4.62379 27.2644 5.55761C27.6102 6.44937 27.8454 7.46712 27.9154 8.95664C27.9322 9.32902 27.9462 9.6398 27.9574 9.95339L27.9658 10.225C27.9906 11.2458 28.0014 12.2669 27.998 13.288L27.9994 14.3324V16.1663C28.0028 17.1879 27.9921 18.2094 27.9672 19.2307L27.9588 19.5023C27.9476 19.8159 27.9336 20.1253 27.9168 20.499C27.8468 21.9886 27.6088 23.0049 27.2644 23.8967C26.9139 24.8315 26.363 25.6782 25.6503 26.3773C24.9503 27.089 24.1038 27.6397 23.1696 27.9915C22.2779 28.3372 21.2615 28.5724 19.772 28.6424C19.3982 28.6592 19.0888 28.6732 18.7752 28.6844L18.5037 28.6928C17.4824 28.7177 16.4608 28.7284 15.4392 28.725L14.3949 28.7264H12.5624C11.5408 28.7299 10.5192 28.7191 9.49792 28.6942L9.22633 28.6858C8.89401 28.6738 8.56175 28.6598 8.22959 28.6438C6.74006 28.5738 5.72371 28.3358 4.83056 27.9915C3.89637 27.6406 3.05018 27.0897 2.35129 26.3773C1.63879 25.6778 1.08747 24.8312 0.73577 23.8967C0.389988 23.0049 0.1548 21.9886 0.0848034 20.499C0.0692122 20.1669 0.0552128 19.8346 0.0428056 19.5023L0.0358061 19.2307C0.00999644 18.2094 -0.00167088 17.1879 0.00080776 16.1663V13.288C-0.00309939 12.2669 0.00716784 11.2458 0.0316063 10.225L0.0414057 9.95339C0.0526052 9.6398 0.0666044 9.32902 0.0834035 8.95664C0.1534 7.46572 0.388588 6.45077 0.73437 5.55761C1.08627 4.62333 1.63867 3.77753 2.35269 3.07974C3.0511 2.36683 3.89675 1.81501 4.83056 1.46282C5.72371 1.11704 6.73866 0.881854 8.22959 0.811857L9.22633 0.76986L9.49792 0.76286C10.5187 0.737063 11.5398 0.725396 12.561 0.727862L15.4392 0.729262ZM14.0001 7.7289C13.0726 7.71579 12.1518 7.88713 11.2912 8.23297C10.4305 8.57881 9.64722 9.09226 8.98673 9.74348C8.32624 10.3947 7.80177 11.1707 7.44379 12.0264C7.08581 12.882 6.90146 13.8003 6.90146 14.7278C6.90146 15.6554 7.08581 16.5737 7.44379 17.4293C7.80177 18.285 8.32624 19.061 8.98673 19.7122C9.64722 20.3634 10.4305 20.8769 11.2912 21.2227C12.1518 21.5686 13.0726 21.7399 14.0001 21.7268C15.8565 21.7268 17.6369 20.9893 18.9496 19.6766C20.2623 18.364 20.9997 16.5836 20.9997 14.7271C20.9997 12.8707 20.2623 11.0903 18.9496 9.77765C17.6369 8.46496 15.8565 7.7289 14.0001 7.7289ZM14.0001 10.5288C14.558 10.5185 15.1123 10.6195 15.6307 10.8258C16.1491 11.0322 16.6212 11.3398 17.0194 11.7307C17.4176 12.1215 17.7339 12.5878 17.9499 13.1023C18.1659 13.6168 18.2772 14.1692 18.2772 14.7271C18.2773 15.2851 18.1662 15.8375 17.9505 16.3521C17.7347 16.8666 17.4185 17.333 17.0204 17.724C16.6224 18.115 16.1504 18.4228 15.632 18.6293C15.1137 18.8358 14.5594 18.937 14.0015 18.9269C12.8876 18.9269 11.8194 18.4845 11.0318 17.6968C10.2442 16.9092 9.80171 15.841 9.80171 14.7271C9.80171 13.6133 10.2442 12.5451 11.0318 11.7574C11.8194 10.9698 12.8876 10.5274 14.0015 10.5274L14.0001 10.5288ZM21.3497 5.62901C20.8981 5.64709 20.471 5.83921 20.1578 6.16514C19.8447 6.49108 19.6698 6.92553 19.6698 7.37752C19.6698 7.82951 19.8447 8.26397 20.1578 8.5899C20.471 8.91583 20.8981 9.10795 21.3497 9.12603C21.8138 9.12603 22.2589 8.94167 22.5871 8.61349C22.9153 8.28532 23.0996 7.84023 23.0996 7.37612C23.0996 6.91202 22.9153 6.46692 22.5871 6.13875C22.2589 5.81058 21.8138 5.62621 21.3497 5.62621V5.62901Z" fill="#64CCC5"/>
</svg>
